<svg xmlns="http://www.w3.org/2000/svg" width="32" height="32" viewBox="0 0 32 32">
  <defs>
    <linearGradient id="bgGrad" x1="0%" y1="0%" x2="100%" y2="100%">
      <stop offset="0%" style="stop-color:#24292f;stop-opacity:1" />
      <stop offset="100%" style="stop-color:#656d76;stop-opacity:1" />
    </linearGradient>
    <linearGradient id="logoGrad" x1="0%" y1="0%" x2="100%" y2="100%">
      <stop offset="0%" style="stop-color:#7c3aed;stop-opacity:1" />
      <stop offset="30%" style="stop-color:#a855f7;stop-opacity:1" />
      <stop offset="70%" style="stop-color:#06b6d4;stop-opacity:1" />
      <stop offset="100%" style="stop-color:#0ea5e9;stop-opacity:1" />
    </linearGradient>
    <linearGradient id="successGrad" x1="0%" y1="0%" x2="100%" y2="100%">
      <stop offset="0%" style="stop-color:#238636;stop-opacity:1" />
      <stop offset="100%" style="stop-color:#2ea043;stop-opacity:1" />
    </linearGradient>
    <linearGradient id="errorGrad" x1="0%" y1="0%" x2="100%" y2="100%">
      <stop offset="0%" style="stop-color:#cf222e;stop-opacity:1" />
      <stop offset="100%" style="stop-color:#da3633;stop-opacity:1" />
    </linearGradient>
  </defs>
  
  <!-- Background circle -->
  <circle cx="16" cy="16" r="15" fill="url(#bgGrad)" stroke="#f6f8fa" stroke-width="2"/>
  
  <!-- Pipeline flow logo -->
  <g transform="translate(2, 2)">
    <!-- Central hub -->
    <circle cx="14" cy="14" r="3" fill="url(#logoGrad)"/>
    
    <!-- Flow lines -->
    <g stroke="url(#logoGrad)" stroke-width="1.5" fill="none" opacity="0.9">
      <line x1="6" y1="14" x2="22" y2="14"/>
      <line x1="14" y1="6" x2="14" y2="22"/>
      <line x1="9" y1="9" x2="19" y2="19"/>
      <line x1="19" y1="9" x2="9" y2="19"/>
    </g>
    
    <!-- Pipeline nodes -->
    <g fill="url(#logoGrad)">
      <circle cx="6" cy="14" r="2"/>
      <circle cx="22" cy="14" r="2"/>
      <circle cx="14" cy="6" r="1.5"/>
      <circle cx="14" cy="22" r="1.5"/>
      <circle cx="9" cy="9" r="1"/>
      <circle cx="19" cy="9" r="1"/>
      <circle cx="9" cy="19" r="1"/>
      <circle cx="19" cy="19" r="1"/>
    </g>
    
    <!-- White centers for main nodes -->
    <g fill="#f6f8fa">
      <circle cx="6" cy="14" r="0.8"/>
      <circle cx="22" cy="14" r="0.8"/>
    </g>
  </g>
  
  <!-- Status indicators in corners -->
  <!-- Success indicator -->
  <circle cx="7" cy="7" r="2" fill="url(#successGrad)" opacity="0.7"/>
  <path d="M6 7l0.8 0.8 1.2-1.2" stroke="#f6f8fa" stroke-width="1" fill="none" stroke-linecap="round" stroke-linejoin="round"/>
  
  <!-- Error indicator -->
  <circle cx="25" cy="7" r="2" fill="url(#errorGrad)" opacity="0.7"/>
  <path d="M24 6l2 2M26 6l-2 2" stroke="#f6f8fa" stroke-width="1" stroke-linecap="round"/>
  
  <!-- Running indicator -->
  <circle cx="7" cy="25" r="2" fill="#fd7e14" opacity="0.7"/>
  <circle cx="7" cy="25" r="0.8" fill="#f6f8fa"/>
  
  <!-- Pending indicator -->
  <circle cx="25" cy="25" r="2" fill="#656d76" opacity="0.7"/>
  <path d="M25 24v1h1" stroke="#f6f8fa" stroke-width="1" fill="none" stroke-linecap="round" stroke-linejoin="round"/>
</svg>
